<?xml version="1.0" encoding="utf-8"?>
<!-- Generator: Adobe Illustrator 14.0.0, SVG Export Plug-In . SVG Version: 6.00 Build 43363)  -->
<!DOCTYPE svg PUBLIC "-//W3C//DTD SVG 1.1//EN" "http://www.w3.org/Graphics/SVG/1.1/DTD/svg11.dtd">
<svg version="1.1" id="Layer_1" xmlns="http://www.w3.org/2000/svg" xmlns:xlink="http://www.w3.org/1999/xlink" x="0px" y="0px"
	 width="612px" height="792px" viewBox="0 0 612 792" enable-background="new 0 0 612 792" xml:space="preserve">
<g>
	<polygon fill-rule="evenodd" clip-rule="evenodd" fill="#FFFFFF" points="209,300 401.756,300 401.756,492.756 209,492.756 
		209,300 	"/>
	<path fill-rule="evenodd" clip-rule="evenodd" d="M271.723,358.15h0.881c0.744,0,1.352,0.137,1.782,0.43
		c0.45,0.274,0.744,0.607,0.881,0.999c0.138,0.372,0.216,1.332,0.216,2.859v19.638c0,1.508-0.078,2.428-0.216,2.78
		c-0.176,0.49-0.45,0.842-0.783,1.058c-0.47,0.293-1.097,0.47-1.88,0.47h-0.881v0.803h13.945v-0.803h-0.882
		c-0.744,0-1.332-0.157-1.782-0.45c-0.431-0.274-0.725-0.607-0.881-0.999c-0.137-0.372-0.215-1.331-0.215-2.858v-19.638
		c0-1.488,0.079-2.428,0.215-2.781c0.196-0.489,0.45-0.842,0.803-1.057c0.47-0.313,1.096-0.45,1.86-0.45h0.882v-0.823h-13.945
		V358.15L271.723,358.15z"/>
	<path fill-rule="evenodd" clip-rule="evenodd" d="M299.476,368.645c-2.233-1.233-3.663-2.095-4.289-2.584
		c-0.823-0.666-1.45-1.351-1.822-2.037c-0.274-0.509-0.411-1.096-0.411-1.762c0-1.038,0.391-1.958,1.175-2.761
		c0.783-0.803,1.841-1.214,3.173-1.214c1.744,0,3.349,0.764,4.838,2.291c1.488,1.527,2.429,3.524,2.8,6.03h0.784l-0.215-9.966
		h-0.568c-0.176,0.901-0.352,1.468-0.548,1.704c-0.196,0.234-0.47,0.352-0.823,0.352c-0.333,0-0.959-0.235-1.86-0.724
		c-0.862-0.47-1.625-0.803-2.233-0.979c-0.822-0.235-1.665-0.353-2.526-0.353c-2.37,0-4.348,0.842-5.895,2.506
		c-1.567,1.684-2.351,3.701-2.351,6.089c0,1.39,0.294,2.662,0.862,3.838c0.568,1.155,1.371,2.193,2.448,3.132
		c1.058,0.94,2.801,2.075,5.229,3.426c1.744,0.94,2.938,1.724,3.624,2.311c0.686,0.607,1.195,1.233,1.528,1.88
		c0.333,0.666,0.509,1.351,0.509,2.056c0,1.194-0.45,2.232-1.312,3.133c-0.881,0.881-2.056,1.331-3.525,1.331
		c-1.899,0-3.662-0.822-5.308-2.486c-1.665-1.684-2.762-4.092-3.349-7.264h-0.725v11.277h0.725c0.235-0.607,0.548-1.057,0.94-1.351
		c0.372-0.293,0.725-0.431,1.078-0.431c0.392,0,0.92,0.137,1.547,0.431c1.136,0.529,2.076,0.9,2.82,1.097
		c0.744,0.177,1.547,0.274,2.37,0.274c2.683,0,4.896-0.901,6.64-2.702c1.703-1.782,2.585-3.936,2.585-6.442
		c0-1.958-0.549-3.701-1.625-5.228C304.686,371.993,302.59,370.368,299.476,368.645L299.476,368.645z"/>
	<path fill-rule="evenodd" clip-rule="evenodd" d="M334.907,361.067c-2.604-2.897-6.013-4.288-10.165-4.15c-0.078,0-0.137,0-0.195,0
		c-3.938-0.176-7.247,1.214-9.95,4.17c-2.684,2.957-4.035,6.657-4.035,11.083c0,3.955,1.038,7.361,3.114,10.24
		c2.605,3.622,6.287,5.443,11.066,5.462c0.02,0,0.039,0,0.059,0c4.799,0,8.5-1.918,11.126-5.736
		c1.978-2.879,2.977-6.207,2.977-9.986C338.903,367.705,337.571,364.024,334.907,361.067L334.907,361.067z M330.833,380.608
		c-0.646,2.075-1.547,3.563-2.703,4.503c-0.9,0.744-2.036,1.097-3.368,1.097c-0.02,0-0.02,0-0.02,0
		c-2.018,0-3.564-0.842-4.681-2.546c-1.587-2.427-2.391-6.207-2.391-11.297c0-4.288,0.51-7.578,1.548-9.868
		c1.273-2.761,3.095-4.151,5.523-4.171c0.02,0,0.039,0,0.059,0c1.313,0,2.487,0.392,3.506,1.195c1.019,0.822,1.842,2.212,2.507,4.17
		c0.666,1.958,0.979,4.895,0.979,8.85C331.793,375.87,331.479,378.552,330.833,380.608L330.833,380.608z"/>
	<path fill-rule="evenodd" clip-rule="evenodd" d="M276.365,392.963c-1.528-1.019-3.134-1.547-4.838-1.566c-0.039,0-0.078,0-0.117,0
		c-1.646,0-3.212,0.47-4.74,1.41c-1.508,0.939-2.683,2.271-3.486,3.994c-0.823,1.723-1.234,3.622-1.234,5.697
		c0,2.977,0.744,5.325,2.272,7.049c1.507,1.704,3.388,2.565,5.66,2.565c0.568,0,1.116-0.06,1.645-0.196
		c0.118-0.02,0.254-0.059,0.372-0.098c0.647-0.196,1.41-0.529,2.331-1.038c-0.391,2.213-1.096,4.151-2.095,5.835
		c-0.176,0.313-0.392,0.646-0.607,0.939c-0.92,1.273-2.057,2.369-3.428,3.29c-1.704,1.135-3.78,2.017-6.208,2.604v0.646
		c3.643-0.137,6.855-0.96,9.636-2.429c0.333-0.176,0.646-0.352,0.96-0.548c2.977-1.84,5.249-4.268,6.757-7.283
		c1.508-3.035,2.252-6.207,2.252-9.516c0-2.546-0.45-4.816-1.391-6.813C279.185,395.528,277.932,394,276.365,392.963
		L276.365,392.963z M274.563,408.843c-0.94,0.489-1.705,0.743-2.272,0.743c-0.274,0-0.529-0.039-0.764-0.098
		c-0.725-0.195-1.332-0.685-1.802-1.469c-0.979-1.625-1.469-4.581-1.469-8.85c0-2.585,0.293-4.308,0.881-5.228
		c0.392-0.666,0.979-0.979,1.704-0.979c0.254,0,0.47,0.04,0.686,0.098c0.294,0.079,0.549,0.196,0.764,0.393
		c0.686,0.646,1.214,1.625,1.567,2.975c0.626,2.428,0.92,5.033,0.92,7.852C274.778,405.592,274.72,407.119,274.563,408.843
		L274.563,408.843z"/>
	<path fill-rule="evenodd" clip-rule="evenodd" d="M347.952,414.363c-0.51,1.058-0.921,1.763-1.234,2.096
		c-0.294,0.332-0.686,0.567-1.175,0.704c-0.471,0.138-1.509,0.216-3.096,0.216h-6.463c4.995-5.11,8.246-9.104,9.734-11.963
		c1.078-2.115,1.626-4.21,1.626-6.246c0-1.136-0.354-2.35-1.058-3.642c-0.705-1.292-1.685-2.291-2.938-3.016
		c-1.254-0.744-2.625-1.116-4.152-1.116c-2.116,0-3.996,0.705-5.622,2.114c-1.605,1.41-2.82,3.603-3.604,6.579l0.803,0.294
		c1.254-2.369,3.017-3.563,5.288-3.563c1.392,0,2.546,0.529,3.506,1.605c0.96,1.077,1.45,2.428,1.45,4.053
		c0,2.213-0.588,4.503-1.744,6.834c-1.155,2.329-4.445,6.872-9.852,13.627v0.509h17.628l1.685-9.085H347.952L347.952,414.363z"/>
	<path fill-rule="evenodd" clip-rule="evenodd" d="M299.261,393.237c-1.508-1.233-3.115-1.84-4.857-1.84c-0.02,0-0.04,0-0.04,0
		c-1.704,0-3.31,0.626-4.818,1.86c-1.547,1.252-2.683,3.074-3.427,5.443c-0.92,2.858-1.371,5.991-1.371,9.398
		c0,2.525,0.313,4.953,0.94,7.322c0.49,1.742,1.057,3.152,1.704,4.21c0.901,1.429,1.939,2.525,3.095,3.309
		c1.155,0.764,2.448,1.155,3.878,1.155c0,0,0.02,0,0.04,0c1.253,0,2.429-0.314,3.506-0.94s2.037-1.468,2.879-2.525
		c0.862-1.077,1.528-2.447,2.017-4.111c0.843-2.722,1.273-5.658,1.273-8.791c0-3.427-0.49-6.579-1.489-9.478
		C301.885,396.154,300.769,394.471,299.261,393.237L299.261,393.237z M297.185,417.653c-0.078,1.801-0.45,3.132-1.057,4.013
		c-0.373,0.49-0.92,0.726-1.665,0.726c-0.04,0-0.079,0-0.098,0c-0.626-0.021-1.136-0.196-1.528-0.549
		c-0.431-0.372-0.744-1.097-0.959-2.192c-0.294-1.527-0.431-4.504-0.431-8.948c0-8.185,0.079-12.942,0.274-14.313
		c0.196-1.37,0.568-2.33,1.116-2.858c0.353-0.353,0.862-0.549,1.489-0.549c0.02,0,0.02,0,0.039,0c0.803,0,1.391,0.236,1.763,0.725
		c0.548,0.764,0.901,2.212,1.057,4.366c0.059,0.9,0.078,4.111,0.078,9.614L297.185,417.653L297.185,417.653z"/>
	<path fill-rule="evenodd" clip-rule="evenodd" d="M321.862,393.237c-1.507-1.233-3.113-1.84-4.856-1.84c-0.02,0-0.039,0-0.059,0
		c-1.685,0-3.291,0.626-4.799,1.86c-1.547,1.252-2.684,3.074-3.428,5.443c-0.921,2.858-1.371,5.991-1.371,9.398
		c0,2.525,0.313,4.953,0.94,7.322c0.489,1.742,1.058,3.152,1.704,4.21c0.9,1.429,1.919,2.525,3.095,3.309
		c1.155,0.764,2.448,1.155,3.858,1.155c0.02,0,0.039,0,0.059,0c1.253,0,2.429-0.314,3.506-0.94s2.037-1.468,2.879-2.525
		c0.861-1.077,1.528-2.447,2.018-4.111c0.842-2.722,1.254-5.658,1.254-8.791c0-3.427-0.49-6.579-1.47-9.478
		C324.487,396.154,323.371,394.471,321.862,393.237L321.862,393.237z M319.787,417.653c-0.099,1.801-0.451,3.132-1.058,4.013
		c-0.372,0.49-0.921,0.726-1.665,0.726c-0.039,0-0.078,0-0.117,0c-0.627-0.021-1.117-0.196-1.509-0.549
		c-0.431-0.372-0.743-1.097-0.959-2.192c-0.294-1.527-0.432-4.504-0.432-8.948c0-8.185,0.079-12.942,0.274-14.313
		c0.196-1.37,0.568-2.33,1.116-2.858c0.353-0.353,0.862-0.549,1.489-0.549c0.02,0,0.02,0,0.02,0c0.822,0,1.41,0.236,1.782,0.725
		c0.549,0.764,0.9,2.212,1.058,4.366c0.059,0.9,0.078,4.111,0.078,9.614L319.787,417.653L319.787,417.653z"/>
	<path fill-rule="evenodd" clip-rule="evenodd" d="M341.668,442.369c13.578-10.729,22.292-27.343,22.292-45.991
		c0-32.354-26.229-58.583-58.582-58.583s-58.583,26.229-58.583,58.583c0,18.661,8.726,35.285,22.32,46.014l1.564-2.011
		c-12.996-10.263-21.337-26.159-21.337-44.003c0-30.947,25.088-56.036,56.036-56.036s56.035,25.088,56.035,56.036
		c0,17.856-8.353,33.763-21.364,44.024L341.668,442.369L341.668,442.369z"/>
	<path fill-rule="evenodd" clip-rule="evenodd" d="M345.119,464.621c23.457-13.689,39.218-39.126,39.218-68.243
		c0-43.607-35.352-78.959-78.959-78.959s-78.959,35.352-78.959,78.959c0,29.111,15.755,54.544,39.204,68.235l1.245-2.224
		c-22.671-13.255-37.901-37.854-37.901-66.012c0-42.201,34.211-76.412,76.412-76.412c42.2,0,76.412,34.211,76.412,76.412
		c0,28.162-15.236,52.767-37.915,66.02L345.119,464.621L345.119,464.621z"/>
	<path fill-rule="evenodd" clip-rule="evenodd" d="M220.051,481.705V311.051h170.654v170.654H220.051L220.051,481.705z
		 M393.252,484.252V308.504H217.504v175.748H393.252L393.252,484.252z"/>
	<path fill-rule="evenodd" clip-rule="evenodd" d="M241.896,398.051c0.033,1.268-1.156,1.462-3.84,1.531
		c-2.759,0.071-3.956-0.063-3.988-1.33c-0.033-1.267,1.156-1.462,3.915-1.533C240.667,396.65,241.863,396.783,241.896,398.051
		L241.896,398.051z M241.631,393.551l0.024,0.939c0.005,0.224,0.304,0.798,0.402,1.124l-0.029,0.03
		c-0.769-0.875-1.793-1.267-4.104-1.207c-2.848,0.073-5.562,0.143-5.466,3.856s2.81,3.643,5.657,3.569
		c3.743-0.097,5.477-0.559,5.391-3.884c-0.01-0.402-0.127-0.907-0.138-1.294l-0.082-3.177L241.631,393.551L241.631,393.551z"/>
	<path fill-rule="evenodd" clip-rule="evenodd" d="M234.171,380.892l7.536,1.239c1.59,0.261,3.12,1.435,2.675,4.143
		c-0.401,2.443-1.861,3.413-3.862,3.084l-7.536-1.239l0.365-2.223l7.389,1.214c1.31,0.215,1.917-0.259,2.051-1.069
		c0.159-0.971-0.416-1.519-1.593-1.713l-7.389-1.214L234.171,380.892L234.171,380.892z"/>
	<path fill-rule="evenodd" clip-rule="evenodd" d="M243.767,372.538l-0.746,2.015l-4.007-2.58l0.01-0.028L243.767,372.538
		L243.767,372.538z M246.445,376.948l-2.026-1.401l1.066-2.882l2.445,0.269l0.823-2.225l-11.114-0.994l-1.03,2.784l9.065,6.534
		L246.445,376.948L246.445,376.948z"/>
	<polygon fill-rule="evenodd" clip-rule="evenodd" points="250.542,367.331 241.229,361.924 242.36,359.977 250.125,364.485 
		251.818,361.569 253.366,362.468 250.542,367.331 	"/>
	<polygon fill-rule="evenodd" clip-rule="evenodd" points="255.628,359.36 247.112,352.769 248.49,350.987 257.007,357.579 
		255.628,359.36 	"/>
	<polygon fill-rule="evenodd" clip-rule="evenodd" points="257.146,341.772 258.396,343.053 256.603,344.804 262.875,351.229 
		261.264,352.803 254.991,346.377 253.198,348.128 251.947,346.847 257.146,341.772 	"/>
	<polygon fill-rule="evenodd" clip-rule="evenodd" points="267.149,342.894 260.835,338.692 262.863,337.297 266.769,340.132 
		265.603,335.412 267.495,334.109 269.005,341.617 271.118,344.689 269.263,345.966 267.149,342.894 	"/>
	<path fill-rule="evenodd" clip-rule="evenodd" d="M285.743,333.301l-2.042,0.668l-0.471-4.743l0.028-0.01L285.743,333.301
		L285.743,333.301z M283.954,338.141l-0.162-2.458l2.92-0.957l1.31,2.082l2.253-0.738l-6.131-9.324l-2.821,0.924l0.519,11.163
		L283.954,338.141L283.954,338.141z"/>
	<path fill-rule="evenodd" clip-rule="evenodd" d="M296.902,335.136c-2.765,0.366-3.499-1.191-3.625-3.056l2.233-0.296
		c0.135,1.021,0.293,1.872,1.521,1.709c0.754-0.1,1.059-0.637,0.963-1.361c-0.254-1.922-4.766-1.445-5.187-4.624
		c-0.221-1.671,0.401-3.107,3.122-3.468c2.174-0.288,3.383,0.545,3.531,2.797l-2.174,0.288c-0.105-0.798-0.347-1.594-1.249-1.475
		c-0.725,0.096-1.101,0.552-1.003,1.291c0.269,2.026,4.74,1.253,5.186,4.61C300.585,334.317,298.603,334.91,296.902,335.136
		L296.902,335.136z"/>
	<path fill-rule="evenodd" clip-rule="evenodd" d="M307.854,334.608c-2.786-0.123-3.236-1.785-3.035-3.642l2.25,0.099
		c-0.046,1.028-0.039,1.895,1.198,1.949c0.76,0.033,1.154-0.442,1.186-1.172c0.086-1.937-4.439-2.255-4.298-5.459
		c0.074-1.684,0.938-2.99,3.679-2.869c2.191,0.097,3.235,1.128,2.987,3.372l-2.19-0.096c0.035-0.805-0.063-1.63-0.972-1.67
		c-0.729-0.032-1.18,0.351-1.213,1.096c-0.09,2.042,4.448,2.062,4.3,5.444C311.624,334.445,309.568,334.683,307.854,334.608
		L307.854,334.608z"/>
	<path fill-rule="evenodd" clip-rule="evenodd" d="M325.433,326.317l-1.725,7.44c-0.364,1.569-1.634,3.021-4.308,2.4
		c-2.412-0.559-3.285-2.079-2.827-4.055l1.725-7.44l2.194,0.509l-1.691,7.294c-0.299,1.293,0.135,1.93,0.934,2.115
		c0.959,0.223,1.544-0.316,1.813-1.479l1.69-7.294L325.433,326.317L325.433,326.317z"/>
	<path fill-rule="evenodd" clip-rule="evenodd" d="M332.978,330.817l0.915,0.401c0.656,0.288,0.896,0.816,0.483,1.759
		c-0.275,0.628-0.867,1.346-1.687,0.987l-0.915-0.401L332.978,330.817L332.978,330.817z M331.109,335.08l0.533,0.233
		c1.585,0.694,1.038,1.644,0.523,2.819c-0.281,0.642-0.629,1.288-0.619,2.008l2.021,0.886c-0.012-0.494,0.762-2.37,1.037-2.998
		c0.778-1.776-0.513-2.472-0.939-2.724l0.012-0.027c1.435,0.368,2.34-0.359,2.891-1.617c0.736-1.68,0.229-2.977-1.178-3.593
		l-3.813-1.67l-4.321,9.864l2.063,0.904L331.109,335.08L331.109,335.08z"/>
	<polygon fill-rule="evenodd" clip-rule="evenodd" points="337.219,343.099 343.161,334.117 348.063,337.36 347.149,338.741 
		344.126,336.741 342.661,338.955 345.447,340.799 344.534,342.18 341.748,340.336 340.011,342.961 343.134,345.027 342.22,346.408 
		337.219,343.099 	"/>
	<path fill-rule="evenodd" clip-rule="evenodd" d="M353.481,343.989l0.842,0.803c1.134,1.081-0.07,2.344-1.439,3.78
		c-1.862,1.954-2.768,2.514-3.761,1.567l-0.788-0.751L353.481,343.989L353.481,343.989z M345.563,349.032l2.656,2.532
		c2.785,2.655,5.216-0.262,6.358-1.46c2.315-2.429,3.274-4.235,1.137-6.273l-2.721-2.593L345.563,349.032L345.563,349.032z"/>
	<polygon fill-rule="evenodd" clip-rule="evenodd" points="357.408,362.567 366.655,357.047 369.522,361.85 368.101,362.699 
		366.388,359.83 364.019,361.244 365.654,363.985 364.233,364.833 362.597,362.093 358.563,364.501 357.408,362.567 	"/>
	<polygon fill-rule="evenodd" clip-rule="evenodd" points="361.939,370.933 371.839,366.69 372.726,368.761 362.827,373.003 
		361.939,370.933 	"/>
	<path fill-rule="evenodd" clip-rule="evenodd" d="M373.886,377.233l0.255,0.966c0.183,0.692-0.082,1.209-1.077,1.472
		c-0.663,0.175-1.594,0.158-1.821-0.708l-0.256-0.966L373.886,377.233L373.886,377.233z M369.386,378.42l0.148,0.563
		c0.441,1.673-0.642,1.835-1.882,2.163c-0.678,0.178-1.4,0.308-1.959,0.763l0.563,2.135c0.379-0.316,2.329-0.876,2.993-1.051
		c1.874-0.495,1.617-1.939,1.549-2.43l0.029-0.007c0.604,1.353,1.735,1.609,3.063,1.259c1.774-0.468,2.475-1.671,2.083-3.156
		l-1.062-4.024l-10.413,2.747l0.574,2.178L369.386,378.42L369.386,378.42z"/>
	<polygon fill-rule="evenodd" clip-rule="evenodd" points="367.046,388.037 377.803,387.519 377.978,391.139 370.743,393.175 
		370.745,393.205 378.146,394.64 378.314,398.142 367.559,398.659 367.453,396.469 375.751,396.07 375.75,396.04 367.352,394.369 
		367.248,392.224 375.452,389.857 375.45,389.827 367.152,390.227 367.046,388.037 	"/>
	<path fill-rule="evenodd" clip-rule="evenodd" d="M277.585,468.165c0,0.995,0.099,1.319,0.495,1.568
		c0.471,0.299,1.015,0.349,4.557,0.349c5.398,0,5.398,0,5.398-1.494c0-0.971-0.372-1.22-1.981-1.245l-2.649-0.1l-1.312-0.05
		c-1.189-0.05-2.501-0.1-4.012-0.174c-4.083-0.125-5.221-1.171-5.221-4.83c0-3.148,0.891-4.555,3.167-5.048
		c0.99-0.197,3.218-0.296,7.279-0.296c4.705,0,6.461,0.223,7.625,1.012c0.965,0.642,1.385,1.702,1.385,3.585
		c0,0.149,0,0.497-0.024,0.846h-4.85c-0.05-0.921-0.124-1.145-0.496-1.369c-0.421-0.249-1.04-0.299-4.754-0.299
		c-4.085,0-4.457,0.1-4.457,1.319c0,0.623,0.223,0.946,0.743,1.071c0.445,0.124,1.808,0.199,5.299,0.299
		c5.447,0.174,6.511,0.299,7.575,0.971c1.113,0.723,1.559,1.867,1.559,4.084c0,3.001-0.668,4.383-2.4,5.024
		c-0.989,0.37-3.068,0.494-7.996,0.494c-5.125,0-7.13-0.247-8.293-0.963c-1.138-0.716-1.509-1.678-1.509-3.884v-0.871H277.585
		L277.585,468.165z"/>
	<path fill-rule="evenodd" clip-rule="evenodd" d="M316.295,464.266v0.446c0,1.637-0.099,4.467-0.173,5.262
		c-0.198,1.93-1.263,3.067-3.241,3.464c-1.683,0.346-3.439,0.445-7.893,0.445c-5.666,0-7.425-0.223-8.812-1.163
		c-0.966-0.643-1.412-1.583-1.61-3.317c-0.074-0.671-0.124-2.359-0.124-4.344c0-4.421,0.421-6.105,1.808-7.046
		c1.189-0.843,3.813-1.164,9.603-1.164c6.137,0,8.412,0.421,9.501,1.709c0.693,0.817,0.891,1.833,0.916,4.267h-5.022
		c-0.025-0.97-0.074-1.168-0.396-1.392c-0.495-0.349-1.633-0.448-5.468-0.448c-5.889,0-5.914,0.025-5.914,4.322
		c0,2.804,0.148,3.648,0.693,4.096c0.42,0.349,0.866,0.423,2.276,0.473l2.944,0.05c4.28,0,5.195-0.075,5.666-0.497
		c0.271-0.273,0.346-0.572,0.346-1.864h-6.606v-3.298H316.295L316.295,464.266z"/>
	<path fill-rule="evenodd" clip-rule="evenodd" d="M322.69,468.165c0,0.995,0.1,1.319,0.495,1.568
		c0.471,0.299,1.016,0.349,4.557,0.349c5.398,0,5.398,0,5.398-1.494c0-0.971-0.372-1.22-1.981-1.245l-2.649-0.1l-1.313-0.05
		c-1.188-0.05-2.501-0.1-4.012-0.174c-4.082-0.125-5.221-1.171-5.221-4.83c0-3.148,0.891-4.555,3.167-5.048
		c0.99-0.197,3.218-0.296,7.279-0.296c4.704,0,6.461,0.223,7.624,1.012c0.965,0.642,1.386,1.702,1.386,3.585
		c0,0.149,0,0.497-0.024,0.846h-4.851c-0.05-0.921-0.124-1.145-0.495-1.369c-0.421-0.249-1.04-0.299-4.754-0.299
		c-4.086,0-4.458,0.1-4.458,1.319c0,0.623,0.224,0.946,0.743,1.071c0.445,0.124,1.808,0.199,5.299,0.299
		c5.447,0.174,6.511,0.299,7.575,0.971c1.113,0.723,1.559,1.867,1.559,4.084c0,3.001-0.668,4.383-2.4,5.024
		c-0.989,0.37-3.068,0.494-7.996,0.494c-5.126,0-7.13-0.247-8.292-0.963c-1.139-0.716-1.51-1.678-1.51-3.884v-0.871H322.69
		L322.69,468.165z"/>
	<polygon fill-rule="evenodd" clip-rule="evenodd" points="318.393,436.831 298.239,454.457 291.083,446.336 291.083,434.847 
		298.239,442.968 318.393,427.974 318.393,436.831 	"/>
</g>
</svg>
